<?xml version="1.0" standalone="no"?>
<!DOCTYPE svg PUBLIC "-//W3C//DTD SVG 20010904//EN"
 "http://www.w3.org/TR/2001/REC-SVG-20010904/DTD/svg10.dtd">
<svg version="1.0" xmlns="http://www.w3.org/2000/svg"
 width="225.000000pt" height="225.000000pt" viewBox="0 0 225.000000 225.000000"
 preserveAspectRatio="xMidYMid meet">

<g transform="translate(0.000000,225.000000) scale(0.100000,-0.100000)"
fill="#000000" stroke="none">
<path d="M913 1775 c-224 -41 -474 -169 -662 -342 -91 -83 -218 -227 -239
-269 -22 -46 -11 -73 71 -171 231 -278 534 -465 836 -518 107 -19 305 -19 412
0 294 51 580 225 817 495 85 97 108 137 98 174 -9 36 -136 186 -236 279 -198
183 -444 311 -679 352 -102 18 -319 18 -418 0z m322 -190 c172 -45 305 -179
350 -352 78 -298 -185 -606 -495 -580 -284 24 -488 294 -429 569 20 91 58 158
133 234 126 125 280 170 441 129z"/>
<path d="M1060 1371 c-46 -15 -85 -39 -116 -73 -53 -55 -68 -95 -68 -173 0
-101 47 -179 139 -228 56 -30 164 -30 220 0 92 49 139 127 139 228 0 101 -48
180 -138 227 -43 22 -136 32 -176 19z"/>
</g>
</svg>
